#define luna_width 42
#define luna_height 12
static unsigned char luna_bits[] = {
   0x00, 0x00, 0x00, 0x00, 0x00, 0x00, 0x00, 0x00, 0x00, 0x00, 0x00, 0x00,
   0x00, 0x00, 0x00, 0x00, 0x00, 0x00, 0x01, 0x00, 0x00, 0x00, 0x00, 0x00,
   0x01, 0x00, 0x00, 0x00, 0x00, 0x00, 0x41, 0xd4, 0x38, 0xc0, 0x06, 0x00,
   0x41, 0x34, 0x41, 0xc0, 0x07, 0x00, 0x41, 0x14, 0x79, 0xc0, 0x07, 0x00,
   0x41, 0x16, 0x45, 0x80, 0x03, 0x00, 0x9f, 0x15, 0x79, 0x00, 0x01, 0x00,
   0x00, 0x00, 0x00, 0x00, 0x00, 0x00, 0x00, 0x00, 0x00, 0x00, 0x00, 0x00 };
